<?xml version="1.0" encoding="utf-8"?>
<!-- Generator: Adobe Illustrator 24.0.3, SVG Export Plug-In . SVG Version: 6.00 Build 0)  -->
<svg version="1.1" id="Layer_1" xmlns="http://www.w3.org/2000/svg" xmlns:xlink="http://www.w3.org/1999/xlink" x="0px" y="0px"
	 viewBox="0 0 260 64.83" style="enable-background:new 0 0 260 64.83;" xml:space="preserve">
<style type="text/css">
	.st0{clip-path:url(#SVGID_2_);}
	.st1{clip-path:url(#SVGID_6_);}
	.st2{clip-path:url(#SVGID_10_);}
	.st3{clip-path:url(#SVGID_14_);}
	.st4{clip-path:url(#SVGID_18_);}
</style>
<g>
	<g>
		<g>
			<defs>
				<polygon id="SVGID_1_" points="27.98,52.99 16.2,44.85 20.06,40.21 26.87,44.85 40.1,27.42 44.93,31.33 				"/>
			</defs>
			<use xlink:href="#SVGID_1_"  style="overflow:visible;fill-rule:evenodd;clip-rule:evenodd;fill:#1A143A;"/>
			<clipPath id="SVGID_2_">
				<use xlink:href="#SVGID_1_"  style="overflow:visible;"/>
			</clipPath>
			<g class="st0">
				<defs>
					<rect id="SVGID_3_" x="-239.49" y="-91.05" width="738.99" height="1211.94"/>
				</defs>
				<use xlink:href="#SVGID_3_"  style="overflow:visible;fill:#1A143A;"/>
				<clipPath id="SVGID_4_">
					<use xlink:href="#SVGID_3_"  style="overflow:visible;"/>
				</clipPath>
			</g>
		</g>
		<g>
			<defs>
				<path id="SVGID_5_" d="M47.01,5.07v4.99c0,2.75-2.28,4.99-5.09,4.99c-2.81,0-5.1-2.24-5.1-4.99V5.07H22.94v4.99
					c0,2.75-2.29,4.99-5.1,4.99c-2.81,0-5.1-2.24-5.1-4.99V5.07H7.65C3.43,5.07,0,8.42,0,12.54v44.82c0,4.12,3.43,7.47,7.65,7.47
					h44.46c4.22,0,7.65-3.35,7.65-7.47V12.54c0-4.12-3.43-7.47-7.65-7.47H47.01z M53.6,56.48c0,1.42-0.73,2.57-2.08,2.57H8.24
					c-1.36,0-2.46-1.15-2.46-2.57V20.49H53.6V56.48z"/>
			</defs>
			<use xlink:href="#SVGID_5_"  style="overflow:visible;fill-rule:evenodd;clip-rule:evenodd;fill:#EC4962;"/>
			<clipPath id="SVGID_6_">
				<use xlink:href="#SVGID_5_"  style="overflow:visible;"/>
			</clipPath>
			<g class="st1">
				<defs>
					<rect id="SVGID_7_" x="-239.49" y="-91.05" width="738.99" height="1211.94"/>
				</defs>
				<use xlink:href="#SVGID_7_"  style="overflow:visible;fill:#EC4962;"/>
				<clipPath id="SVGID_8_">
					<use xlink:href="#SVGID_7_"  style="overflow:visible;"/>
				</clipPath>
			</g>
		</g>
		<g>
			<defs>
				<path id="SVGID_9_" d="M17.76,12.09c-1.36,0-2.46-1.09-2.46-2.42V2.42C15.3,1.09,16.4,0,17.76,0c1.36,0,2.46,1.09,2.46,2.42
					v7.25C20.22,11,19.11,12.09,17.76,12.09L17.76,12.09z"/>
			</defs>
			<use xlink:href="#SVGID_9_"  style="overflow:visible;fill-rule:evenodd;clip-rule:evenodd;fill:#1A143A;"/>
			<clipPath id="SVGID_10_">
				<use xlink:href="#SVGID_9_"  style="overflow:visible;"/>
			</clipPath>
			<g class="st2">
				<defs>
					<rect id="SVGID_11_" x="-186.46" y="-70.48" width="586.66" height="962.12"/>
				</defs>
				<use xlink:href="#SVGID_11_"  style="overflow:visible;fill:#1A143A;"/>
				<clipPath id="SVGID_12_">
					<use xlink:href="#SVGID_11_"  style="overflow:visible;"/>
				</clipPath>
			</g>
		</g>
		<g>
			<defs>
				<path id="SVGID_13_" d="M41.77,12.09c-1.36,0-2.46-1.09-2.46-2.42V2.42c0-1.33,1.11-2.42,2.46-2.42s2.46,1.09,2.46,2.42v7.25
					C44.24,11,43.13,12.09,41.77,12.09L41.77,12.09z"/>
			</defs>
			<use xlink:href="#SVGID_13_"  style="overflow:visible;fill-rule:evenodd;clip-rule:evenodd;fill:#1A143A;"/>
			<clipPath id="SVGID_14_">
				<use xlink:href="#SVGID_13_"  style="overflow:visible;"/>
			</clipPath>
			<g class="st3">
				<defs>
					<rect id="SVGID_15_" x="-162.44" y="-70.48" width="586.66" height="962.12"/>
				</defs>
				<use xlink:href="#SVGID_15_"  style="overflow:visible;fill:#1A143A;"/>
				<clipPath id="SVGID_16_">
					<use xlink:href="#SVGID_15_"  style="overflow:visible;"/>
				</clipPath>
			</g>
		</g>
	</g>
	<g>
		<defs>
			<path id="SVGID_17_" d="M258.5,34.35c-0.15,0.24-0.31,0.42-0.47,0.53c-0.16,0.11-0.38,0.16-0.66,0.16
				c-0.28,0-0.57-0.07-0.86-0.21c-0.29-0.14-0.62-0.3-0.99-0.46c-0.37-0.16-0.78-0.32-1.25-0.46c-0.47-0.14-1.01-0.21-1.63-0.21
				c-0.94,0-1.67,0.2-2.19,0.59c-0.52,0.39-0.78,0.91-0.78,1.55c0,0.44,0.15,0.81,0.44,1.11c0.29,0.3,0.68,0.56,1.17,0.78
				c0.48,0.22,1.04,0.43,1.65,0.62c0.62,0.19,1.25,0.4,1.91,0.63c0.65,0.23,1.29,0.49,1.91,0.79c0.62,0.3,1.17,0.68,1.65,1.13
				c0.48,0.45,0.87,0.99,1.17,1.63c0.29,0.64,0.44,1.4,0.44,2.3c0,1.07-0.19,2.06-0.58,2.97c-0.39,0.91-0.95,1.69-1.7,2.35
				c-0.74,0.66-1.67,1.17-2.78,1.54c-1.11,0.37-2.39,0.56-3.83,0.56c-0.74,0-1.48-0.07-2.21-0.2c-0.73-0.14-1.43-0.33-2.09-0.58
				c-0.66-0.25-1.28-0.54-1.85-0.87c-0.58-0.33-1.07-0.69-1.5-1.07l1.35-2.21c0.15-0.26,0.35-0.46,0.58-0.6
				c0.23-0.14,0.53-0.21,0.9-0.21c0.35,0,0.67,0.09,0.97,0.27c0.29,0.18,0.62,0.37,0.99,0.58c0.37,0.21,0.8,0.4,1.3,0.58
				c0.5,0.18,1.12,0.27,1.86,0.27c0.56,0,1.05-0.06,1.45-0.19c0.41-0.13,0.74-0.3,0.99-0.53c0.25-0.22,0.44-0.47,0.56-0.75
				c0.12-0.28,0.18-0.57,0.18-0.87c0-0.49-0.15-0.88-0.45-1.19c-0.3-0.31-0.7-0.58-1.18-0.8c-0.48-0.23-1.04-0.44-1.67-0.62
				c-0.63-0.19-1.27-0.39-1.93-0.62c-0.65-0.23-1.29-0.5-1.92-0.81c-0.63-0.31-1.18-0.71-1.66-1.19c-0.48-0.48-0.88-1.07-1.18-1.77
				c-0.3-0.7-0.45-1.55-0.45-2.55c0-0.91,0.18-1.78,0.53-2.6c0.35-0.82,0.88-1.55,1.58-2.18c0.7-0.63,1.58-1.13,2.62-1.5
				c1.05-0.37,2.26-0.56,3.63-0.56c1.54,0,2.95,0.26,4.21,0.77c1.26,0.51,2.3,1.19,3.12,2.02L258.5,34.35z M236.59,52.25
				c-0.98,0-1.85-0.15-2.61-0.44c-0.76-0.29-1.4-0.71-1.92-1.25c-0.52-0.54-0.91-1.2-1.18-1.97c-0.27-0.77-0.4-1.64-0.4-2.62V34.05
				h-2.04c-0.31,0-0.57-0.1-0.79-0.3c-0.22-0.2-0.33-0.5-0.33-0.9v-2.32l3.48-0.64l1.18-5.72c0.15-0.64,0.58-0.96,1.29-0.96h3.03
				v6.73h5.6v4.12h-5.6v11.53c0,0.61,0.14,1.1,0.43,1.46c0.29,0.36,0.7,0.54,1.23,0.54c0.28,0,0.52-0.03,0.72-0.1
				c0.2-0.06,0.37-0.14,0.51-0.21c0.14-0.08,0.27-0.15,0.39-0.21c0.12-0.06,0.24-0.1,0.37-0.1c0.17,0,0.31,0.04,0.42,0.12
				c0.11,0.08,0.22,0.21,0.34,0.4l1.75,2.83c-0.8,0.64-1.71,1.13-2.72,1.46C238.72,52.09,237.68,52.25,236.59,52.25z M210.89,32.38
				c0.44-0.43,0.89-0.82,1.36-1.18c0.47-0.36,0.97-0.66,1.5-0.92c0.53-0.26,1.1-0.46,1.71-0.6c0.61-0.14,1.27-0.21,1.99-0.21
				c1.18,0,2.23,0.21,3.14,0.62c0.91,0.41,1.68,0.99,2.31,1.74c0.63,0.74,1.1,1.63,1.41,2.66c0.32,1.03,0.47,2.16,0.47,3.39v14.04
				h-5.79V37.87c0-1.23-0.28-2.18-0.84-2.86c-0.56-0.68-1.39-1.02-2.49-1.02c-0.81,0-1.58,0.18-2.3,0.54
				c-0.72,0.36-1.4,0.86-2.04,1.5v15.89h-5.81v-22.1h3.58c0.73,0,1.21,0.34,1.45,1.03L210.89,32.38z M187.55,41.77
				c0.18,2.07,0.76,3.59,1.74,4.55c0.98,0.96,2.25,1.44,3.82,1.44c0.8,0,1.49-0.1,2.08-0.29c0.58-0.19,1.1-0.41,1.54-0.64
				c0.44-0.24,0.84-0.45,1.2-0.64c0.36-0.19,0.71-0.29,1.06-0.29c0.45,0,0.8,0.17,1.05,0.51l1.69,2.14
				c-0.62,0.73-1.3,1.33-2.04,1.81c-0.74,0.48-1.52,0.86-2.32,1.14c-0.8,0.28-1.61,0.47-2.42,0.58c-0.81,0.11-1.6,0.16-2.36,0.16
				c-1.52,0-2.93-0.25-4.24-0.76c-1.31-0.51-2.46-1.26-3.43-2.25c-0.98-0.99-1.75-2.23-2.31-3.7c-0.56-1.47-0.84-3.18-0.84-5.12
				c0-1.5,0.24-2.92,0.73-4.24c0.48-1.33,1.18-2.49,2.1-3.47c0.91-0.99,2.02-1.77,3.33-2.35c1.31-0.58,2.78-0.87,4.42-0.87
				c1.39,0,2.67,0.23,3.84,0.68c1.17,0.45,2.18,1.1,3.03,1.96c0.85,0.86,1.51,1.91,1.98,3.16c0.47,1.25,0.71,2.68,0.71,4.28
				c0,0.44-0.02,0.81-0.06,1.09c-0.04,0.29-0.11,0.51-0.21,0.69c-0.1,0.17-0.23,0.29-0.4,0.35c-0.17,0.06-0.39,0.1-0.65,0.1H187.55z
				 M196.69,38.25c0-0.61-0.08-1.2-0.24-1.76c-0.16-0.56-0.42-1.05-0.77-1.48c-0.35-0.43-0.79-0.77-1.33-1.02
				c-0.53-0.25-1.17-0.38-1.92-0.38c-1.39,0-2.48,0.4-3.27,1.2c-0.79,0.8-1.3,1.94-1.54,3.43H196.69z M181.14,29.81l-8.53,22.1
				h-5.27l-8.53-22.1h4.82c0.42,0,0.77,0.1,1.05,0.3c0.28,0.2,0.48,0.46,0.59,0.77l3.64,10.93c0.24,0.74,0.45,1.47,0.63,2.18
				c0.18,0.71,0.34,1.42,0.48,2.13c0.15-0.71,0.33-1.43,0.52-2.13c0.19-0.71,0.41-1.43,0.66-2.18l3.77-10.93
				c0.1-0.31,0.29-0.57,0.57-0.77c0.28-0.2,0.61-0.3,0.99-0.3H181.14z M144.76,25.84v8h10.2v4.87h-10.2v8.17h13.1v5.04H138.4V20.8
				h19.47v5.04H144.76z M120.71,36.49h11.12v4.85h-11.12V36.49z M121.42,25.99h-8.93v25.92h-6.34V25.99h-8.93V20.8h24.21V25.99z
				 M93.38,51.91h-6.36V20.8h6.36V51.91z"/>
		</defs>
		<use xlink:href="#SVGID_17_"  style="overflow:visible;fill-rule:evenodd;clip-rule:evenodd;fill:#1A143A;"/>
		<clipPath id="SVGID_18_">
			<use xlink:href="#SVGID_17_"  style="overflow:visible;"/>
		</clipPath>
		<g class="st4">
			<defs>
				<rect id="SVGID_19_" x="-239.49" y="-91.05" width="738.99" height="1211.94"/>
			</defs>
			<use xlink:href="#SVGID_19_"  style="overflow:visible;fill:#1A143A;"/>
			<clipPath id="SVGID_20_">
				<use xlink:href="#SVGID_19_"  style="overflow:visible;"/>
			</clipPath>
		</g>
	</g>
</g>
</svg>
