<?xml version="1.0" encoding="utf-8"?>
<!-- Generator: Adobe Illustrator 24.1.1, SVG Export Plug-In . SVG Version: 6.00 Build 0)  -->
<svg version="1.1" id="Layer_1" xmlns="http://www.w3.org/2000/svg" xmlns:xlink="http://www.w3.org/1999/xlink" x="0px" y="0px"
	 viewBox="0 0 200 200" style="enable-background:new 0 0 200 200;" xml:space="preserve">
<style type="text/css">
	.st0{fill:#FFFFFF;}
</style>
<g>
	<path class="st0" d="M57.72,113.98l8.9-47.04h13.58l-14.67,66.12H51.81L41.05,88.82l-10.76,44.23H16.57L1.91,66.93h13.58
		l8.95,46.95l10.9-46.95h11.53L57.72,113.98z"/>
	<path class="st0" d="M121.83,115.7c0-2.57-0.91-4.55-2.72-5.93s-5.09-2.83-9.81-4.36s-8.46-3.04-11.22-4.52
		c-7.51-4.06-11.26-9.52-11.26-16.39c0-3.57,1.01-6.76,3.02-9.56c2.01-2.8,4.9-4.99,8.67-6.56c3.77-1.57,8-2.36,12.69-2.36
		c4.72,0,8.93,0.86,12.62,2.57c3.69,1.71,6.56,4.13,8.61,7.24c2.04,3.12,3.07,6.66,3.07,10.63h-13.62c0-3.03-0.95-5.38-2.86-7.06
		c-1.91-1.68-4.59-2.52-8.04-2.52c-3.33,0-5.92,0.7-7.76,2.11c-1.85,1.41-2.77,3.26-2.77,5.56c0,2.15,1.08,3.95,3.25,5.4
		c2.16,1.45,5.35,2.82,9.56,4.09c7.75,2.33,13.4,5.22,16.94,8.67c3.54,3.45,5.31,7.75,5.31,12.9c0,5.72-2.17,10.21-6.49,13.46
		c-4.33,3.25-10.16,4.88-17.48,4.88c-5.09,0-9.72-0.93-13.9-2.79c-4.18-1.86-7.36-4.41-9.56-7.65c-2.2-3.24-3.29-6.99-3.29-11.26
		h13.67c0,7.3,4.36,10.94,13.08,10.94c3.24,0,5.77-0.66,7.58-1.97C120.93,119.9,121.83,118.06,121.83,115.7z"/>
	<path class="st0" d="M144.72,133.05V66.93h23.16c8.02,0,14.11,1.54,18.25,4.61s6.22,7.58,6.22,13.51c0,3.24-0.83,6.09-2.5,8.56
		s-3.98,4.28-6.95,5.43c3.39,0.85,6.06,2.56,8.01,5.13c1.95,2.57,2.93,5.72,2.93,9.45c0,6.36-2.03,11.17-6.08,14.44
		s-9.84,4.93-17.35,5H144.72z M158.34,94.63h10.08c6.87-0.12,10.31-2.86,10.31-8.22c0-3-0.87-5.15-2.61-6.47
		c-1.74-1.32-4.49-1.98-8.24-1.98h-9.54V94.63z M158.34,104.26v17.85h11.67c3.21,0,5.71-0.76,7.51-2.29c1.8-1.53,2.7-3.64,2.7-6.33
		c0-6.05-3.13-9.13-9.4-9.22H158.34z"/>
</g>
</svg>
